<?xml version="1.0" encoding="UTF-8" standalone="no"?>
<svg xmlns:dc="http://purl.org/dc/elements/1.1/" xmlns:cc="http://creativecommons.org/ns#" xmlns:rdf="http://www.w3.org/1999/02/22-rdf-syntax-ns#" xmlns:svg="http://www.w3.org/2000/svg" xmlns="http://www.w3.org/2000/svg" version="1.1" id="svg4201" viewBox="0 0 638.79465 432.93304" height="122.18333mm" width="180.28204mm">
  <defs id="defs4203"/>
  <metadata id="metadata4206">
    <rdf:RDF>
      <cc:Work rdf:about="">
        <dc:format>image/svg+xml</dc:format>
        <dc:type rdf:resource="http://purl.org/dc/dcmitype/StillImage"/>
        <dc:title/>
      </cc:Work>
    </rdf:RDF>
  </metadata>
  <g transform="translate(-45.437138,-312.14569)" id="layer1">
    <path id="path4213" d="M 664.28572,528.07649 94.285714,526.64792" style="fill:none;fill-rule:evenodd;stroke:#000000;stroke-width:8;stroke-linecap:butt;stroke-linejoin:miter;stroke-miterlimit:4;stroke-dasharray:none;stroke-opacity:1"/>
    <path id="path4755" d="m 94.285714,329.86221 0,397.49999" style="fill:none;fill-rule:evenodd;stroke:#000000;stroke-width:8;stroke-linecap:butt;stroke-linejoin:miter;stroke-miterlimit:4;stroke-dasharray:none;stroke-opacity:1"/>
    <text id="text4769" y="518.07654" x="591.42853" style="font-style:italic;font-variant:normal;font-weight:normal;font-stretch:normal;font-size:45.00000381px;line-height:125%;font-family:sans-serif;-inkscape-font-specification:'sans-serif Italic';letter-spacing:0px;word-spacing:0px;fill:#000000;fill-opacity:1;stroke:none;stroke-width:1px;stroke-linecap:butt;stroke-linejoin:miter;stroke-opacity:1" xml:space="preserve"><tspan style="font-size:45.00000381px" y="518.07654" x="591.42853" id="tspan4771">t →</tspan></text>
    <text xml:space="preserve" style="font-style:italic;font-variant:normal;font-weight:normal;font-stretch:normal;font-size:40px;line-height:125%;font-family:sans-serif;-inkscape-font-specification:'sans-serif Italic';letter-spacing:0px;word-spacing:0px;fill:#f90000;fill-opacity:1;stroke:#ff0000;stroke-width:1px;stroke-linecap:butt;stroke-linejoin:miter;stroke-opacity:1" x="486.43216" y="346.79153" id="text4773"><tspan id="tspan4775" x="486.43216" y="346.79153"/><tspan id="tspan4777" x="486.43216" y="396.79153">V<tspan id="tspan4781" style="font-style:normal;font-variant:normal;font-weight:normal;font-stretch:normal;font-size:35px;font-family:sans-serif;-inkscape-font-specification:sans-serif;baseline-shift:sub;fill:#f90000;fill-opacity:1;stroke:#ff0000;stroke-opacity:1">o</tspan></tspan></text>
    <text id="text4787" y="407.68527" x="433.9837" style="font-style:italic;font-variant:normal;font-weight:normal;font-stretch:normal;font-size:40px;line-height:125%;font-family:sans-serif;-inkscape-font-specification:'sans-serif Italic';letter-spacing:0px;word-spacing:0px;fill:#0000ff;fill-opacity:1;stroke:#0000fc;stroke-width:1px;stroke-linecap:butt;stroke-linejoin:miter;stroke-opacity:1" xml:space="preserve"><tspan y="407.68527" x="433.9837" id="tspan4789"/><tspan y="457.68527" x="433.9837" id="tspan4791">V<tspan id="tspan4795" style="font-style:normal;font-variant:normal;font-weight:normal;font-stretch:normal;font-size:35px;font-family:sans-serif;-inkscape-font-specification:sans-serif;baseline-shift:sub;fill:#0000ff;fill-opacity:1;stroke:#0000fc;stroke-opacity:1">i</tspan></tspan></text>
    <text xml:space="preserve" style="font-style:italic;font-variant:normal;font-weight:normal;font-stretch:normal;font-size:40px;line-height:125%;font-family:sans-serif;-inkscape-font-specification:'sans-serif Italic';letter-spacing:0px;word-spacing:0px;fill:#000000;fill-opacity:1;stroke:none;stroke-width:1px;stroke-linecap:butt;stroke-linejoin:miter;stroke-opacity:1" x="101.42854" y="359.50516" id="text4803"><tspan id="tspan4805" x="101.42854" y="359.50516" style="font-size:40px">V</tspan></text>
  </g>
  <g transform="translate(-45.437138,-312.14569)" style="display:inline" id="layer2">
    <path id="path4757" d="m 80.901996,506.70673 c 0,0 14.146693,-0.11076 32.880944,-9.77312 18.73426,-9.66238 20.95416,-27.21274 45.02174,-23.16764 24.06758,4.04511 11.75713,29.69582 28.58866,26.31442 16.83152,-3.38141 21.45833,-15.80678 33.34731,-16.62216 11.88899,-0.81538 4.50254,18.66288 26.51374,13.6632 22.01121,-4.99968 15.22381,91.1126 48.77028,87.11244 33.43078,-3.98636 41.11997,-63.52266 61.46223,-77.45496 20.34226,-13.9323 21.78571,-7.69608 41.81116,-16.91015 20.02544,-9.21408 31.85669,-30.53016 69.68552,-15.96354 37.82883,14.56661 44.83946,93.34635 79.66198,95.98141 34.82252,2.63503 29.34918,-10.54716 61.85441,-17.86597 40.07034,-9.02215 19.48024,-0.762 54.94612,-8.3138" style="fill:none;fill-rule:evenodd;stroke:#0000ff;stroke-width:5;stroke-linecap:butt;stroke-linejoin:miter;stroke-miterlimit:2;stroke-dasharray:none;stroke-opacity:1"/>
    <path style="fill:none;fill-rule:evenodd;stroke:#ff0000;stroke-width:5;stroke-linecap:butt;stroke-linejoin:miter;stroke-miterlimit:2;stroke-dasharray:none;stroke-opacity:1" d="m 80.901996,465.91895 c 0,0 14.146693,-0.33697 32.880944,-29.73438 18.73426,-29.39746 20.95416,-82.79385 45.02174,-70.48676 24.06758,12.30711 11.75713,90.34852 28.58866,80.06073 16.83152,-10.28783 21.45833,-48.09159 33.34731,-50.57237 11.88899,-2.48075 4.50254,56.78119 26.51374,41.56984 22.01121,-15.21136 15.22381,277.207 48.77028,265.03665 33.43078,-12.12837 41.11997,-193.26554 61.46223,-235.6541 20.34226,-42.38855 21.78571,-23.41506 41.81116,-51.44855 20.02544,-28.03354 31.85669,-92.88699 69.68552,-48.56854 37.82883,44.31842 44.83946,284.00312 79.66198,292.02021 34.82252,8.01697 29.34918,-32.08938 61.85441,-54.35662 40.07034,-27.44959 19.48024,-2.31835 54.94612,-25.29446" id="path4164"/>
  </g>
</svg>