<?xml version="1.0" encoding="UTF-8" standalone="no"?>
<!-- Created with Inkscape (http://www.inkscape.org/) -->

<svg
   width="300"
   height="300"
   version="1.1"
   id="svg378"
   sodipodi:docname="Psyche_insignia.svg"
   inkscape:version="1.2.2 (b0a8486541, 2022-12-01)"
   xmlns:inkscape="http://www.inkscape.org/namespaces/inkscape"
   xmlns:sodipodi="http://sodipodi.sourceforge.net/DTD/sodipodi-0.dtd"
   xmlns:xlink="http://www.w3.org/1999/xlink"
   xmlns="http://www.w3.org/2000/svg"
   xmlns:svg="http://www.w3.org/2000/svg">
  <sodipodi:namedview
     id="namedview380"
     pagecolor="#ffffff"
     bordercolor="#000000"
     borderopacity="0.25"
     inkscape:showpageshadow="2"
     inkscape:pageopacity="0.0"
     inkscape:pagecheckerboard="0"
     inkscape:deskcolor="#d1d1d1"
     showgrid="false"
     inkscape:zoom="0.5125"
     inkscape:cx="445.85366"
     inkscape:cy="775.60976"
     inkscape:window-width="1920"
     inkscape:window-height="1006"
     inkscape:window-x="0"
     inkscape:window-y="27"
     inkscape:window-maximized="1"
     inkscape:current-layer="svg378" />
  <title
     id="title2">Psyche mission patch</title>
  <defs
     id="defs18">
    <linearGradient
       id="linearGradient1"
       x1="171.0331"
       x2="229.43291"
       y1="318.05042"
       y2="259.61011"
       gradientUnits="userSpaceOnUse">
      <stop
         style="stop-color:#312146"
         offset="0"
         id="stop4" />
      <stop
         style="stop-color:#5a2752"
         offset=".2"
         id="stop6" />
      <stop
         style="stop-color:#a5405c"
         offset=".4"
         id="stop8" />
      <stop
         style="stop-color:#ef5965"
         offset=".6"
         id="stop10" />
      <stop
         style="stop-color:#f47d33"
         offset=".8"
         id="stop12" />
      <stop
         style="stop-color:#f9a000"
         offset="1"
         id="stop14" />
    </linearGradient>
    <linearGradient
       id="linearGradient2"
       x1="157.9435"
       x2="242.5874"
       y1="331.25699"
       y2="246.41631"
       gradientUnits="userSpaceOnUse"
       xlink:href="#linearGradient1" />
    <linearGradient
       inkscape:collect="always"
       xlink:href="#linearGradient1"
       id="linearGradient2148"
       gradientUnits="userSpaceOnUse"
       x1="171.0331"
       y1="318.05042"
       x2="229.43291"
       y2="259.61011" />
  </defs>
  <g
     transform="matrix(2.2069777,0,0,-2.2069777,-291.94729,787.40771)"
     id="g376">
    <g
       id="g22">
      <path
         d="m 171.707,345.007 -27.649,-27.65 c -15.699,-15.699 -15.699,-41.386 0,-57.084 l 27.649,-27.651 c 15.699,-15.698 41.387,-15.698 57.086,0 l 27.649,27.651 c 15.699,15.698 15.699,41.385 0,57.084 l -27.649,27.65 c -7.85,7.849 -18.197,11.774 -28.543,11.774 -10.346,0 -20.694,-3.925 -28.543,-11.774 m 9.955,-99.77 -24.989,24.991 c -10.223,10.223 -10.223,26.951 0,37.174 l 24.989,24.99 c 10.223,10.223 26.953,10.223 37.176,0 l 24.989,-24.99 c 10.223,-10.223 10.223,-26.951 0,-37.174 l -24.989,-24.991 c -5.112,-5.112 -11.85,-7.667 -18.588,-7.667 -6.738,0 -13.477,2.555 -18.588,7.667"
         style="fill:url(#linearGradient2)"
         id="path20" />
    </g>
    <g
       id="g144">
      <g
         transform="translate(199.4041,259.9521)"
         id="g26">
        <path
           d="m 0,0 c 5.458,-0.192 11.013,1.44 15.683,5.025 1.732,1.328 3.235,2.844 4.504,4.496 C 16.007,8.483 11.739,7.788 7.431,7.431 Z"
           style="fill:#312146"
           id="path24" />
      </g>
      <g
         transform="translate(229.1069,289.655)"
         id="g30">
        <path
           d="M 0,0 -7.419,-7.419 C -7.77,-11.688 -8.46,-15.956 -9.515,-20.182 -3.026,-15.201 0.257,-7.597 0,0"
           style="fill:#312146"
           id="path28" />
      </g>
      <g
         transform="translate(238.9329,288.8147)"
         id="g34">
        <path
           d="M 0,0 C 0,3.103 -0.735,6.033 -2.034,8.632 L -9.826,0.84 c 0.257,-7.596 -3.026,-15.201 -9.515,-20.181 5.34,0 10.175,2.164 13.676,5.664 v 10e-4 C -2.165,-10.176 0,-5.341 0,0"
           style="fill:#5a2752"
           id="path32" />
      </g>
      <g
         transform="translate(215.0873,264.9768)"
         id="g38">
        <path
           d="m 0,0 c -4.671,-3.585 -10.225,-5.216 -15.683,-5.025 l -7.787,-7.786 c 2.599,-1.299 5.529,-2.034 8.633,-2.034 10.682,0 19.341,8.66 19.341,19.341 C 3.235,2.844 1.731,1.329 0,0"
           style="fill:#5a2752"
           id="path36" />
      </g>
      <g
         transform="translate(199.4041,259.9521)"
         id="g42">
        <path
           d="M 0,0 7.431,7.431 C 1.433,6.934 -4.645,7.107 -10.69,7.988 L -13.802,4.876 C -9.758,1.834 -4.92,0.173 0,0"
           style="fill:#5a2752"
           id="path40" />
      </g>
      <g
         transform="translate(219.5915,288.8147)"
         id="g46">
        <path
           d="M 0,0 C 0,2.926 -0.654,5.699 -1.817,8.186 L -24.26,-14.258 c 0.14,-0.193 0.276,-0.389 0.422,-0.579 1.329,-1.732 2.844,-3.235 4.496,-4.504 C -8.659,-19.341 0,-10.682 0,0"
           style="fill:#5a2752"
           id="path44" />
      </g>
      <g
         transform="translate(221.1183,300.3442)"
         id="g50">
        <path
           d="m 0,0 c 0.868,-5.961 1.069,-12.035 0.57,-18.108 l 7.419,7.419 C 7.825,-5.859 6.231,-1.035 3.112,3.112 Z"
           style="fill:#5a2752"
           id="path48" />
      </g>
      <g
         transform="translate(195.7535,273.9774)"
         id="g54">
        <path
           d="M 0,0 C -0.146,0.191 -0.282,0.386 -0.422,0.58 L -3.689,-2.687 C -1.203,-3.851 1.57,-4.504 4.496,-4.504 2.844,-3.235 1.329,-1.731 0,0"
           style="fill:#a5405c"
           id="path52" />
      </g>
      <g
         transform="translate(185.6023,264.8281)"
         id="g58">
        <path
           d="m 0,0 -3.083,-3.083 c 0.974,-2.233 2.354,-4.248 4.053,-5.947 l 0.003,-0.003 c 1.466,-1.466 3.169,-2.693 5.042,-3.629 l 7.787,7.786 C 8.882,-4.703 4.044,-3.042 0,0"
           style="fill:#a5405c"
           id="path56" />
      </g>
      <g
         transform="translate(229.1069,289.655)"
         id="g62">
        <path
           d="m 0,0 7.792,7.792 c -2.022,4.046 -5.418,7.282 -9.579,9.099 l -3.089,-3.09 C -1.758,9.654 -0.163,4.83 0,0"
           style="fill:#a5405c"
           id="path60" />
      </g>
      <g
         transform="translate(195.3314,274.5572)"
         id="g66">
        <path
           d="m 0,0 22.443,22.443 c -1.92,4.103 -5.236,7.419 -9.339,9.339 L -4.614,14.063 C -4.578,9.167 -3.068,4.247 0,0"
           style="fill:#a5405c"
           id="path64" />
      </g>
      <g
         transform="translate(176.2695,274.1732)"
         id="g70">
        <path
           d="M 0,0 C 0.049,-0.065 0.093,-0.131 0.143,-0.196 1.471,-1.927 2.987,-3.431 4.639,-4.7 4,-2.125 3.495,0.483 3.112,3.112 Z"
           style="fill:#a5405c"
           id="path68" />
      </g>
      <g
         transform="translate(185.6023,264.8281)"
         id="g74">
        <path
           d="M 0,0 3.112,3.112 C 0.501,3.493 -2.105,3.999 -4.694,4.645 -3.313,2.846 -1.728,1.3 0,0"
           style="fill:#a5405c"
           id="path72" />
      </g>
      <g
         transform="translate(224.2304,303.4563)"
         id="g78">
        <path
           d="M 0,0 C -0.049,0.065 -0.093,0.131 -0.143,0.196 -1.471,1.927 -2.987,3.431 -4.639,4.7 -4,2.125 -3.495,-0.483 -3.112,-3.112 Z"
           style="fill:#a5405c"
           id="path76" />
      </g>
      <g
         transform="translate(214.8977,312.8013)"
         id="g82">
        <path
           d="M 0,0 -3.112,-3.112 C -0.501,-3.493 2.105,-3.999 4.694,-4.645 3.313,-2.846 1.728,-1.3 0,0"
           style="fill:#a5405c"
           id="path80" />
      </g>
      <g
         transform="translate(176.4121,273.9774)"
         id="g86">
        <path
           d="m 0,0 c -0.049,0.064 -0.094,0.131 -0.143,0.196 l -3.089,-3.09 c 2.367,-1.033 4.98,-1.61 7.728,-1.61 C 2.844,-3.235 1.329,-1.731 0,0"
           style="fill:#ef5965"
           id="path84" />
      </g>
      <g
         transform="translate(180.9085,269.4733)"
         id="g90">
        <path
           d="m 0,0 c 0,-2.748 0.577,-5.361 1.61,-7.729 l 3.084,3.084 C 2.966,-3.345 1.38,-1.799 0,0"
           style="fill:#ef5965"
           id="path88" />
      </g>
      <g
         transform="translate(224.0879,303.6521)"
         id="g94">
        <path
           d="m 0,0 c 0.049,-0.064 0.094,-0.131 0.143,-0.196 l 3.089,3.09 C 0.865,3.927 -1.748,4.504 -4.496,4.504 -2.844,3.235 -1.329,1.731 0,0"
           style="fill:#ef5965"
           id="path92" />
      </g>
      <g
         transform="translate(219.5915,308.1562)"
         id="g98">
        <path
           d="M 0,0 C 0,2.748 -0.577,5.361 -1.61,7.729 L -4.694,4.645 C -2.966,3.345 -1.38,1.799 0,0"
           style="fill:#ef5965"
           id="path96" />
      </g>
      <g
         transform="translate(190.7169,288.6206)"
         id="g102">
        <path
           d="m 0,0 -7.991,-7.991 c 1.919,-4.103 5.236,-7.42 9.338,-9.339 l 3.267,3.267 C 1.546,-9.817 0.036,-4.896 0,0"
           style="fill:#ef5965"
           id="path100" />
      </g>
      <g
         transform="translate(190.7169,288.6206)"
         id="g106">
        <path
           d="M 0,0 17.719,17.719 C 15.232,18.882 12.46,19.536 9.533,19.536 3.227,14.696 -0.054,7.38 0,0"
           style="fill:#ef5965"
           id="path104" />
      </g>
      <g
         transform="translate(176.2695,274.1732)"
         id="g110">
        <path
           d="M 0,0 3.112,3.112 C 2.244,9.073 2.043,15.148 2.542,21.22 L -4.876,13.801 C -4.713,8.972 -3.119,4.147 0,0"
           style="fill:#ef5965"
           id="path108" />
      </g>
      <g
         transform="translate(201.0959,317.6773)"
         id="g114">
        <path
           d="m 0,0 -7.431,-7.431 c 5.998,0.497 12.076,0.323 18.12,-0.557 l 3.113,3.112 C 9.758,-1.834 4.92,-0.173 0,0"
           style="fill:#ef5965"
           id="path112" />
      </g>
      <g
         transform="translate(200.25,308.1562)"
         id="g118">
        <path
           d="m 0,0 c -10.682,0 -19.341,-8.659 -19.341,-19.341 0,-2.927 0.653,-5.7 1.816,-8.186 l 7.992,7.991 C -9.587,-12.156 -6.306,-4.839 0,0"
           style="fill:#f47d33"
           id="path116" />
      </g>
      <g
         transform="translate(171.393,287.9745)"
         id="g122">
        <path
           d="m 0,0 -7.792,-7.792 c 0.936,-1.874 2.164,-3.576 3.629,-5.043 l 0.004,-0.003 c 1.698,-1.698 3.713,-3.078 5.946,-4.053 l 3.089,3.09 C 1.758,-9.654 0.163,-4.83 0,0"
           style="fill:#f47d33"
           id="path120" />
      </g>
      <g
         transform="translate(214.8977,312.8013)"
         id="g126">
        <path
           d="M 0,0 3.083,3.083 C 1.267,7.244 -1.97,10.641 -6.015,12.662 L -13.802,4.876 C -8.882,4.703 -4.044,3.042 0,0"
           style="fill:#f47d33"
           id="path124" />
      </g>
      <g
         transform="translate(201.0959,317.6773)"
         id="g130">
        <path
           d="m 0,0 c -5.458,0.192 -11.013,-1.44 -15.683,-5.025 -1.732,-1.328 -3.235,-2.844 -4.504,-4.496 4.18,1.038 8.448,1.733 12.756,2.09 z"
           style="fill:#f47d33"
           id="path128" />
      </g>
      <g
         transform="translate(171.393,287.9745)"
         id="g134">
        <path
           d="M 0,0 7.419,7.419 C 7.77,11.688 8.46,15.956 9.515,20.182 3.026,15.201 -0.257,7.597 0,0"
           style="fill:#f47d33"
           id="path132" />
      </g>
      <g
         transform="translate(180.9085,308.1562)"
         id="g138">
        <path
           d="m 0,0 c -10.682,0 -19.341,-8.659 -19.341,-19.341 0,-3.104 0.734,-6.034 2.033,-8.633 l 7.793,7.792 C -9.772,-12.585 -6.49,-4.981 0,0"
           style="fill:#f9a000"
           id="path136" />
      </g>
      <g
         transform="translate(185.4126,312.6526)"
         id="g142">
        <path
           d="m 0,0 c 4.671,3.585 10.225,5.216 15.683,5.025 l 7.787,7.786 C 20.871,14.11 17.941,14.845 14.837,14.845 4.155,14.845 -4.504,6.186 -4.504,-4.496 -3.235,-2.844 -1.731,-1.329 0,0"
           style="fill:#f9a000"
           id="path140" />
      </g>
    </g>
    <g
       id="g374">
      <path
         d="m 183.125,330.088 -24.148,-24.147 c -9.443,-9.444 -9.443,-24.809 0,-34.252 l 24.148,-24.147 c 4.556,-4.556 10.638,-7.066 17.125,-7.066 6.487,0 12.569,2.51 17.125,7.066 l 24.147,24.147 c 4.557,4.557 7.066,10.638 7.066,17.125 0,6.488 -2.509,12.57 -7.066,17.127 l -24.147,24.147 c -4.721,4.721 -10.923,7.082 -17.125,7.082 -6.202,0 -12.404,-2.361 -17.125,-7.082 m 1.784,-80.762 -24.147,24.147 c -8.46,8.459 -8.46,22.224 0,30.683 l 24.147,24.148 c 4.23,4.229 9.785,6.344 15.341,6.344 5.556,0 11.111,-2.115 15.341,-6.344 l 24.147,-24.148 c 4.08,-4.08 6.327,-9.528 6.327,-15.342 0,-5.813 -2.247,-11.26 -6.327,-15.341 l -24.147,-24.147 c -4.079,-4.08 -9.528,-6.327 -15.341,-6.327 -5.813,0 -11.262,2.247 -15.341,6.327"
         style="fill:url(#linearGradient2148)"
         id="path146" />
      <g
         id="g372">
        <g
           transform="translate(154.9985,315.5976)"
           id="g150">
          <path
             d="m 0,0 -0.595,-0.595 1.785,-1.785 -1.365,-1.366 -5.081,5.081 1.961,1.96 c 0.717,0.718 1.708,0.794 2.472,0.031 L 0.031,2.472 C 0.794,1.709 0.717,0.717 0,0 M -2.037,1.991 C -2.22,2.174 -2.38,2.151 -2.525,2.006 L -2.86,1.671 -1.533,0.343 -1.197,0.679 c 0.144,0.145 0.16,0.313 -0.016,0.488 z"
             style="fill:#ffffff"
             id="path148" />
        </g>
        <g
           transform="translate(160.3157,317.0852)"
           id="g154">
          <path
             d="m 0,0 c -1.038,-1.038 -2.204,-1.121 -3.112,-0.214 l -0.275,0.275 1.19,1.19 0.244,-0.244 c 0.244,-0.244 0.572,-0.267 0.831,-0.008 0.26,0.26 0.237,0.527 -0.03,0.793 -0.313,0.313 -0.908,0.161 -1.594,0.008 -0.877,-0.206 -1.9,-0.404 -2.647,0.343 -0.794,0.794 -1,2.129 0.099,3.227 0.9,0.901 2.166,0.87 2.96,0.077 L -2.121,5.233 -3.311,4.043 -3.547,4.28 C -3.768,4.501 -4.051,4.493 -4.234,4.31 -4.409,4.135 -4.47,3.829 -4.226,3.585 c 0.312,-0.312 0.9,-0.152 1.587,0 0.884,0.199 1.922,0.397 2.7,-0.381 C 0.862,2.403 1.053,1.053 0,0"
             style="fill:#ffffff"
             id="path152" />
        </g>
        <g
           transform="translate(162.4209,323.737)"
           id="g158">
          <path
             d="m 0,0 2.144,-2.144 -1.366,-1.365 -2.143,2.143 -4.127,1.747 1.403,1.404 2.25,-1.137 -1.197,2.19 1.35,1.35 z"
             style="fill:#ffffff"
             id="path156" />
        </g>
        <g
           transform="translate(167.89,324.6595)"
           id="g162">
          <path
             d="m 0,0 c -1.022,-1.022 -2.395,-1.144 -3.334,-0.206 l -2.212,2.212 c -0.938,0.939 -0.816,2.312 0.206,3.334 0.969,0.969 2.182,0.992 3.059,0.114 L -1.709,4.882 -2.922,3.669 -3.501,4.249 C -3.7,4.447 -3.967,4.455 -4.211,4.211 -4.455,3.967 -4.447,3.7 -4.249,3.501 l 2.411,-2.41 c 0.198,-0.199 0.465,-0.206 0.709,0.038 0.244,0.244 0.237,0.511 0.038,0.71 l -0.58,0.579 1.213,1.213 0.573,-0.572 C 0.992,2.182 0.969,0.969 0,0"
             style="fill:#ffffff"
             id="path160" />
        </g>
        <g
           transform="translate(172.1697,329.1983)"
           id="g166">
          <path
             d="m 0,0 -1.861,1.861 -0.809,-0.808 1.861,-1.862 -1.365,-1.365 -5.081,5.08 1.366,1.366 2.059,-2.06 0.809,0.809 -2.06,2.06 1.366,1.365 5.08,-5.081 z"
             style="fill:#ffffff"
             id="path164" />
        </g>
        <g
           transform="translate(174.2595,331.2881)"
           id="g170">
          <path
             d="m 0,0 -5.081,5.081 2.907,2.906 1.106,-1.106 -1.541,-1.541 0.892,-0.893 1,1 0.961,-0.961 -0.999,-1 L 0.19,2.54 1.731,4.081 2.907,2.906 Z"
             style="fill:#ffffff"
             id="path168" />
        </g>
        <g
           transform="translate(179.5995,339.101)"
           id="g174">
          <path
             d="M 0,0 C -0.593,-0.535 -1.396,-0.547 -1.988,0.11 -2.58,0.768 -2.486,1.565 -1.893,2.099 -1.308,2.626 -0.505,2.638 0.087,1.981 0.68,1.324 0.585,0.527 0,0"
             style="fill:#ffffff"
             id="path172" />
        </g>
        <g
           transform="translate(186.1877,340.9736)"
           id="g178">
          <path
             d="m 0,0 c -1.222,-0.686 -2.329,-0.368 -2.952,0.742 l -0.465,0.828 1.279,0.718 0.47,-0.837 c 0.259,-0.461 0.625,-0.54 1.02,-0.318 0.395,0.221 0.499,0.564 0.24,1.025 L -2.995,6.767 -1.65,7.522 0.89,2.998 C 1.518,1.879 1.27,0.713 0,0"
             style="fill:#ffffff"
             id="path176" />
        </g>
        <g
           transform="translate(191.1492,343.1898)"
           id="g182">
          <path
             d="M 0,0 C -1.401,-0.47 -2.531,0.117 -2.939,1.334 L -3.942,4.32 C -4.347,5.526 -3.801,6.677 -2.4,7.147 -0.989,7.621 0.132,7.03 0.536,5.823 L 1.539,2.838 C 1.948,1.621 1.411,0.474 0,0 M -0.963,5.411 C -1.118,5.871 -1.497,6.085 -1.988,5.92 -2.468,5.759 -2.641,5.359 -2.487,4.899 L -1.43,1.75 c 0.155,-0.46 0.534,-0.674 1.015,-0.513 0.49,0.165 0.664,0.564 0.509,1.025 z"
             style="fill:#ffffff"
             id="path180" />
        </g>
        <g
           transform="translate(196.5468,344.4338)"
           id="g186">
          <path
             d="M 0,0 C -1.348,-0.176 -2.439,0.508 -2.594,1.695 L -3.29,7.001 -1.738,7.204 -1.046,1.92 C -0.983,1.438 -0.669,1.207 -0.167,1.273 0.347,1.341 0.601,1.646 0.537,2.127 L -0.155,7.412 1.332,7.606 2.027,2.301 C 2.183,1.113 1.358,0.178 0,0"
             style="fill:#ffffff"
             id="path184" />
        </g>
        <g
           transform="translate(203.6508,344.6649)"
           id="g190">
          <path
             d="m 0,0 c -0.625,0.037 -0.836,0.482 -0.796,1.15 l 0.07,1.174 C -0.703,2.7 -0.878,3.035 -1.319,3.061 l -0.83,0.05 -0.174,-2.929 -1.54,0.092 0.428,7.172 2.584,-0.154 C 0.312,7.222 0.973,6.513 0.911,5.479 L 0.864,4.703 C 0.83,4.122 0.523,3.697 -0.133,3.563 0.504,3.374 0.784,2.817 0.755,2.322 L 0.685,1.148 C 0.665,0.814 0.759,0.581 0.942,0.398 L 0.915,-0.055 Z m -0.581,5.481 c 0.022,0.356 -0.116,0.591 -0.514,0.615 L -1.967,6.148 -2.085,4.177 -1.277,4.129 c 0.398,-0.024 0.626,0.168 0.651,0.599 z"
             style="fill:#ffffff"
             id="path188" />
        </g>
        <g
           transform="translate(208.6625,343.6396)"
           id="g194">
          <path
             d="M 0,0 -0.815,3.185 -1.116,4.477 -2.13,0.551 -3.498,0.904 -1.701,7.858 -0.459,7.538 0.298,4.301 0.568,3.017 1.599,7.006 2.946,6.658 1.148,-0.297 Z"
             style="fill:#ffffff"
             id="path192" />
        </g>
        <g
           transform="translate(210.7357,342.9623)"
           id="g198">
          <path
             d="M 0,0 3.045,6.508 6.671,4.812 6.122,3.639 3.894,4.682 3.226,3.255 4.761,2.537 4.267,1.481 2.733,2.199 1.969,0.567 4.197,-0.475 3.625,-1.697 Z"
             style="fill:#ffffff"
             id="path196" />
        </g>
        <g
           transform="translate(219.0943,341.6557)"
           id="g202">
          <path
             d="m 0,0 -1.715,-2.434 -1.261,0.888 1.715,2.434 0.906,4.509 L 0.968,4.465 0.225,1.518 2.705,3.241 3.967,2.352 Z"
             style="fill:#ffffff"
             id="path200" />
        </g>
        <g
           transform="translate(226.8241,338.4807)"
           id="g206">
          <path
             d="m 0,0 -4.15,-4.15 -1.091,1.091 4.15,4.15 -1.098,1.098 0.93,0.931 3.281,-3.28 -0.931,-0.931 z"
             style="fill:#ffffff"
             id="path204" />
        </g>
        <g
           transform="translate(225.8774,330.8681)"
           id="g210">
          <path
             d="M 0,0 C -1.045,1.045 -1.022,2.319 -0.114,3.227 L 2.113,5.454 C 3.014,6.355 4.287,6.377 5.332,5.332 6.385,4.28 6.355,3.013 5.455,2.113 L 3.227,-0.114 C 2.319,-1.022 1.053,-1.053 0,0 m 4.417,3.273 c 0.343,0.343 0.366,0.778 0,1.144 C 4.059,4.776 3.624,4.753 3.28,4.409 L 0.931,2.06 C 0.588,1.716 0.565,1.282 0.923,0.923 1.289,0.557 1.724,0.58 2.068,0.923 Z"
             style="fill:#ffffff"
             id="path208" />
        </g>
        <g
           transform="translate(232.303,324.7021)"
           id="g214">
          <path
             d="M 0,0 0.794,1.221 -0.26,2.273 -1.48,1.48 -2.502,2.502 3.768,6.393 4.989,5.172 1.091,-1.091 Z M 2.952,4.386 0.709,2.922 1.457,2.174 Z"
             style="fill:#ffffff"
             id="path212" />
        </g>
        <g
           transform="translate(239.0537,317.9512)"
           id="g218">
          <path
             d="M 0,0 3.601,3.601 2.197,2.701 -0.862,0.862 -1.678,1.678 0.19,4.707 1.098,6.103 -2.502,2.502 -3.479,3.479 1.602,8.559 3.067,7.094 1.091,3.898 0.381,2.823 1.465,3.524 4.653,5.508 6.11,4.051 1.03,-1.03 Z"
             style="fill:#ffffff"
             id="path216" />
        </g>
        <g
           transform="translate(241.0453,315.9595)"
           id="g222">
          <path
             d="M 0,0 5.08,5.081 7.911,2.25 6.995,1.335 5.256,3.074 4.142,1.96 5.34,0.763 4.516,-0.061 3.318,1.137 2.045,-0.137 3.784,-1.877 2.83,-2.83 Z"
             style="fill:#ffffff"
             id="path220" />
        </g>
        <g
           transform="translate(250.7386,314.5659)"
           id="g226">
          <path
             d="m 0,0 -4.15,-4.15 -1.09,1.091 4.15,4.15 -1.099,1.098 0.93,0.931 3.281,-3.28 -0.931,-0.931 z"
             style="fill:#ffffff"
             id="path224" />
        </g>
        <g
           transform="translate(250.0648,306.7247)"
           id="g230">
          <path
             d="M 0,0 0.882,1.159 -0.09,2.286 -1.366,1.586 -2.31,2.681 4.232,6.097 5.359,4.789 1.007,-1.169 Z M 3.269,4.156 0.924,2.861 1.615,2.06 Z"
             style="fill:#ffffff"
             id="path228" />
        </g>
        <g
           transform="translate(251.3333,305.0828)"
           id="g234">
          <path
             d="M 0,0 6.159,3.698 6.954,2.376 1.932,-0.64 3.148,-2.665 2.01,-3.348 Z"
             style="fill:#ffffff"
             id="path232" />
        </g>
        <g
           transform="translate(255.9262,294.0288)"
           id="g238">
          <path
             d="M 0,0 -0.354,1.335 3.485,3.232 -0.798,3.014 -1.148,4.338 5.414,7.626 5.806,6.145 1.458,4.191 6.236,4.518 6.542,3.36 2.216,1.323 6.968,1.754 7.332,0.378 Z"
             style="fill:#ffffff"
             id="path236" />
        </g>
        <g
           transform="translate(256.1091,289.8499)"
           id="g242">
          <path
             d="M 0,0 C -0.054,1.477 0.831,2.393 2.114,2.44 L 5.262,2.553 C 6.533,2.599 7.481,1.748 7.535,0.271 7.588,-1.216 6.703,-2.122 5.431,-2.169 L 2.284,-2.282 C 1.001,-2.327 0.053,-1.488 0,0 M 5.462,-0.613 C 5.947,-0.596 6.26,-0.293 6.241,0.224 6.223,0.731 5.889,1.011 5.404,0.993 L 2.084,0.874 C 1.599,0.856 1.286,0.554 1.304,0.047 1.323,-0.471 1.657,-0.75 2.142,-0.732 Z"
             style="fill:#ffffff"
             id="path240" />
        </g>
        <g
           transform="translate(255.6774,282.7707)"
           id="g246">
          <path
             d="M 0,0 C 0.095,0.618 0.558,0.787 1.219,0.685 L 2.381,0.506 C 2.754,0.448 3.104,0.591 3.171,1.028 L 3.297,1.849 0.398,2.296 0.633,3.82 7.732,2.726 7.338,0.168 C 7.161,-0.984 6.393,-1.575 5.37,-1.417 L 4.602,-1.299 C 4.026,-1.21 3.632,-0.865 3.56,-0.2 3.312,-0.816 2.732,-1.043 2.241,-0.968 l -1.162,0.18 C 0.749,-0.738 0.508,-0.81 0.308,-0.975 l -0.447,0.069 z M 5.511,0.067 C 5.863,0.013 6.11,0.128 6.171,0.522 L 6.304,1.385 4.353,1.686 4.23,0.887 C 4.169,0.492 4.338,0.248 4.765,0.182 Z"
             style="fill:#ffffff"
             id="path244" />
        </g>
        <g
           transform="translate(255.3602,281.2482)"
           id="g250">
          <path
             d="M 0,0 6.807,-2.302 6.313,-3.764 0.763,-1.887 0.006,-4.125 -1.252,-3.7 Z"
             style="fill:#ffffff"
             id="path248" />
        </g>
        <g
           transform="translate(252.7173,274.8802)"
           id="g254">
          <path
             d="M 0,0 1.157,2.098 7.45,-1.372 6.293,-3.469 C 5.574,-4.774 4.348,-5.009 3.299,-4.431 L 0.71,-3.004 C -0.349,-2.42 -0.719,-1.304 0,0 m 4.016,-3.064 c 0.5,-0.276 0.924,-0.202 1.21,0.318 L 5.58,-2.103 1.536,0.126 1.182,-0.516 C 0.896,-1.036 1.058,-1.434 1.559,-1.71 Z"
             style="fill:#ffffff"
             id="path252" />
        </g>
        <g
           transform="translate(250.5495,268.1448)"
           id="g258">
          <path
             d="M 0,0 C 0.536,0.592 1.333,0.685 1.989,0.091 2.644,-0.503 2.631,-1.305 2.095,-1.897 1.566,-2.481 0.769,-2.574 0.114,-1.98 -0.542,-1.386 -0.528,-0.584 0,0"
             style="fill:#ffffff"
             id="path256" />
        </g>
        <g
           transform="translate(245.5015,262.0322)"
           id="g262">
          <path
             d="M 0,0 0.595,0.595 -1.19,2.38 0.175,3.745 5.256,-1.335 3.295,-3.296 C 2.578,-4.013 1.587,-4.089 0.823,-3.326 l -0.854,0.854 C -0.794,-1.709 -0.717,-0.717 0,0 M 2.037,-1.991 C 2.22,-2.174 2.38,-2.151 2.525,-2.006 L 2.86,-1.671 1.533,-0.343 1.197,-0.679 C 1.053,-0.824 1.037,-0.992 1.213,-1.167 Z"
             style="fill:#ffffff"
             id="path260" />
        </g>
        <g
           transform="translate(240.1843,260.5444)"
           id="g266">
          <path
             d="m 0,0 c 1.038,1.038 2.204,1.121 3.112,0.213 l 0.275,-0.274 -1.19,-1.19 -0.244,0.244 c -0.244,0.244 -0.572,0.267 -0.831,0.008 -0.26,-0.26 -0.237,-0.526 0.03,-0.794 0.313,-0.312 0.908,-0.16 1.594,-0.007 0.877,0.206 1.9,0.404 2.647,-0.343 0.794,-0.794 1,-2.129 -0.099,-3.227 -0.9,-0.901 -2.166,-0.87 -2.96,-0.077 l -0.213,0.214 1.19,1.19 0.236,-0.237 c 0.221,-0.221 0.504,-0.213 0.687,-0.03 0.175,0.176 0.236,0.481 -0.008,0.725 -0.312,0.312 -0.9,0.152 -1.587,0 -0.884,-0.199 -1.922,-0.397 -2.7,0.381 C -0.862,-2.403 -1.053,-1.053 0,0"
             style="fill:#ffffff"
             id="path264" />
        </g>
        <g
           transform="translate(238.0791,253.8928)"
           id="g270">
          <path
             d="m 0,0 -2.144,2.143 1.366,1.366 2.143,-2.144 4.127,-1.747 -1.403,-1.403 -2.25,1.136 1.197,-2.189 -1.35,-1.35 z"
             style="fill:#ffffff"
             id="path268" />
        </g>
        <g
           transform="translate(232.61,252.9702)"
           id="g274">
          <path
             d="M 0,0 C 1.022,1.022 2.395,1.144 3.334,0.206 L 5.546,-2.006 C 6.484,-2.945 6.362,-4.318 5.34,-5.34 4.371,-6.309 3.158,-6.332 2.281,-5.455 l -0.572,0.573 1.213,1.213 0.579,-0.58 c 0.199,-0.199 0.466,-0.206 0.71,0.038 0.244,0.244 0.236,0.511 0.038,0.71 l -2.411,2.41 C 1.64,-0.892 1.373,-0.885 1.129,-1.129 0.885,-1.373 0.892,-1.64 1.091,-1.839 l 0.58,-0.579 -1.213,-1.213 -0.573,0.572 C -0.992,-2.182 -0.969,-0.969 0,0"
             style="fill:#ffffff"
             id="path272" />
        </g>
        <g
           transform="translate(228.3303,248.4314)"
           id="g278">
          <path
             d="M 0,0 1.861,-1.861 2.67,-1.053 0.809,0.809 2.174,2.174 7.255,-2.907 5.889,-4.272 3.83,-2.212 3.021,-3.021 l 2.06,-2.06 -1.366,-1.365 -5.08,5.08 z"
             style="fill:#ffffff"
             id="path276" />
        </g>
        <g
           transform="translate(226.2405,246.3417)"
           id="g282">
          <path
             d="m 0,0 5.081,-5.081 -2.907,-2.906 -1.106,1.106 1.541,1.541 -0.892,0.892 -1,-0.999 -0.961,0.961 0.999,1 -0.945,0.945 -1.541,-1.541 -1.176,1.175 z"
             style="fill:#ffffff"
             id="path280" />
        </g>
        <g
           transform="translate(220.9005,238.5287)"
           id="g286">
          <path
             d="M 0,0 C 0.593,0.534 1.396,0.546 1.988,-0.111 2.58,-0.768 2.486,-1.565 1.893,-2.099 1.308,-2.627 0.505,-2.639 -0.087,-1.982 -0.679,-1.325 -0.585,-0.527 0,0"
             style="fill:#ffffff"
             id="path284" />
        </g>
        <g
           transform="translate(214.3123,236.656)"
           id="g290">
          <path
             d="M 0,0 C 1.222,0.686 2.329,0.368 2.952,-0.742 L 3.417,-1.57 2.138,-2.288 1.668,-1.451 C 1.409,-0.99 1.043,-0.911 0.648,-1.133 0.253,-1.354 0.149,-1.697 0.408,-2.158 L 2.995,-6.767 1.65,-7.522 -0.89,-2.998 C -1.518,-1.879 -1.27,-0.713 0,0"
             style="fill:#ffffff"
             id="path288" />
        </g>
        <g
           transform="translate(209.3511,234.4396)"
           id="g294">
          <path
             d="M 0,0 C 1.401,0.471 2.531,-0.117 2.939,-1.334 L 3.942,-4.319 C 4.347,-5.526 3.8,-6.677 2.4,-7.147 0.989,-7.621 -0.132,-7.03 -0.536,-5.823 l -1.003,2.985 C -1.948,-1.621 -1.411,-0.474 0,0 m 0.963,-5.411 c 0.155,-0.46 0.534,-0.674 1.025,-0.509 0.48,0.161 0.653,0.561 0.499,1.021 L 1.43,-1.75 c -0.155,0.46 -0.534,0.674 -1.015,0.513 -0.49,-0.165 -0.664,-0.564 -0.509,-1.025 z"
             style="fill:#ffffff"
             id="path292" />
        </g>
        <g
           transform="translate(203.9535,233.1955)"
           id="g298">
          <path
             d="M 0,0 C 1.348,0.177 2.438,-0.508 2.594,-1.695 L 3.29,-7.001 1.738,-7.204 1.046,-1.919 C 0.982,-1.438 0.67,-1.207 0.167,-1.273 -0.347,-1.34 -0.601,-1.646 -0.538,-2.127 L 0.155,-7.411 -1.332,-7.606 -2.027,-2.3 C -2.183,-1.113 -1.359,-0.178 0,0"
             style="fill:#ffffff"
             id="path296" />
        </g>
        <g
           transform="translate(196.8495,232.9645)"
           id="g302">
          <path
             d="M 0,0 C 0.625,-0.037 0.836,-0.482 0.796,-1.15 L 0.726,-2.324 C 0.703,-2.7 0.878,-3.035 1.319,-3.062 l 0.83,-0.049 0.175,2.929 1.54,-0.092 -0.429,-7.172 -2.584,0.154 c -1.163,0.07 -1.824,0.779 -1.762,1.813 l 0.047,0.775 c 0.034,0.582 0.341,1.007 0.997,1.14 -0.637,0.19 -0.917,0.747 -0.888,1.242 l 0.07,1.174 c 0.02,0.334 -0.074,0.567 -0.257,0.75 l 0.027,0.453 z m 0.581,-5.482 c -0.022,-0.355 0.116,-0.59 0.514,-0.614 l 0.872,-0.052 0.118,1.971 -0.808,0.048 C 0.879,-4.105 0.651,-4.297 0.626,-4.728 Z"
             style="fill:#ffffff"
             id="path300" />
        </g>
        <g
           transform="translate(191.8378,233.99)"
           id="g306">
          <path
             d="m 0,0 0.815,-3.185 0.301,-1.292 1.014,3.926 1.368,-0.353 -1.797,-6.955 -1.243,0.321 -0.756,3.237 -0.27,1.284 -1.031,-3.989 -1.347,0.348 1.797,6.955 z"
             style="fill:#ffffff"
             id="path304" />
        </g>
        <g
           transform="translate(189.7646,234.6669)"
           id="g310">
          <path
             d="m 0,0 -3.045,-6.508 -3.626,1.696 0.549,1.173 2.228,-1.043 0.668,1.427 -1.534,0.718 0.493,1.056 1.534,-0.718 0.764,1.632 -2.228,1.042 0.572,1.222 z"
             style="fill:#ffffff"
             id="path308" />
        </g>
        <g
           transform="translate(181.4066,235.9739)"
           id="g314">
          <path
             d="M 0,0 1.715,2.434 2.976,1.546 1.261,-0.888 0.355,-5.397 l -1.323,0.932 0.743,2.947 -2.481,-1.723 -1.26,0.889 z"
             style="fill:#ffffff"
             id="path312" />
        </g>
        <g
           transform="translate(173.6762,239.1489)"
           id="g318">
          <path
             d="M 0,0 4.15,4.15 5.241,3.059 1.091,-1.091 2.19,-2.19 1.259,-3.12 l -3.28,3.28 0.93,0.931 z"
             style="fill:#ffffff"
             id="path316" />
        </g>
        <g
           transform="translate(174.6229,246.7617)"
           id="g322">
          <path
             d="m 0,0 c 1.045,-1.045 1.022,-2.319 0.115,-3.227 l -2.228,-2.228 c -0.9,-0.9 -2.174,-0.923 -3.219,0.122 -1.053,1.053 -1.022,2.319 -0.122,3.22 l 2.227,2.227 C -2.319,1.022 -1.053,1.053 0,0 m -4.417,-3.273 c -0.343,-0.343 -0.366,-0.778 0,-1.144 0.359,-0.359 0.794,-0.336 1.137,0.008 l 2.349,2.349 c 0.344,0.343 0.367,0.778 0.008,1.137 -0.366,0.366 -0.801,0.343 -1.144,0 z"
             style="fill:#ffffff"
             id="path320" />
        </g>
        <g
           transform="translate(168.1976,252.9276)"
           id="g326">
          <path
             d="m 0,0 -0.793,-1.221 1.052,-1.052 1.221,0.793 1.022,-1.022 -6.271,-3.891 -1.22,1.221 3.898,6.263 z m -2.952,-4.387 2.242,1.465 -0.747,0.748 z"
             style="fill:#ffffff"
             id="path324" />
        </g>
        <g
           transform="translate(161.4465,259.6781)"
           id="g330">
          <path
             d="m 0,0 -3.601,-3.601 1.404,0.901 3.059,1.838 0.816,-0.816 -1.868,-3.029 -0.908,-1.396 3.6,3.601 0.977,-0.976 -5.081,-5.081 -1.465,1.465 1.976,3.196 0.71,1.076 -1.084,-0.702 -3.188,-1.984 -1.457,1.457 5.08,5.081 z"
             style="fill:#ffffff"
             id="path328" />
        </g>
        <g
           transform="translate(159.4549,261.67)"
           id="g334">
          <path
             d="m 0,0 -5.08,-5.081 -2.831,2.83 0.916,0.916 1.739,-1.74 1.114,1.115 -1.198,1.197 0.824,0.824 1.198,-1.198 1.274,1.274 -1.74,1.739 0.954,0.954 z"
             style="fill:#ffffff"
             id="path332" />
        </g>
        <g
           transform="translate(149.7617,263.0635)"
           id="g338">
          <path
             d="M 0,0 4.15,4.15 5.241,3.059 1.09,-1.09 2.189,-2.189 1.259,-3.12 -2.022,0.16 -1.091,1.091 Z"
             style="fill:#ffffff"
             id="path336" />
        </g>
        <g
           transform="translate(150.4355,270.9048)"
           id="g342">
          <path
             d="m 0,0 -0.882,-1.159 0.972,-1.128 1.276,0.701 0.944,-1.095 -6.542,-3.416 -1.127,1.308 4.352,5.958 z m -3.269,-4.156 2.345,1.295 -0.691,0.8 z"
             style="fill:#ffffff"
             id="path340" />
        </g>
        <g
           transform="translate(149.167,272.5465)"
           id="g346">
          <path
             d="m 0,0 -6.159,-3.698 -0.794,1.322 5.021,3.016 -1.215,2.025 1.137,0.683 z"
             style="fill:#ffffff"
             id="path344" />
        </g>
        <g
           transform="translate(144.5741,283.6006)"
           id="g350">
          <path
             d="m 0,0 0.354,-1.335 -3.839,-1.897 4.283,0.218 0.35,-1.324 -6.562,-3.288 -0.392,1.481 4.348,1.954 -4.778,-0.327 -0.306,1.158 4.326,2.037 -4.752,-0.431 -0.364,1.376 z"
             style="fill:#ffffff"
             id="path348" />
        </g>
        <g
           transform="translate(144.3911,287.78)"
           id="g354">
          <path
             d="m 0,0 c 0.053,-1.477 -0.831,-2.393 -2.114,-2.44 l -3.148,-0.113 c -1.272,-0.046 -2.22,0.805 -2.273,2.282 -0.053,1.487 0.831,2.393 2.104,2.439 l 3.147,0.114 C -1.001,2.327 -0.054,1.487 0,0 m -5.462,0.613 c -0.485,-0.018 -0.798,-0.32 -0.779,-0.838 0.018,-0.507 0.352,-0.786 0.837,-0.768 l 3.32,0.119 c 0.485,0.018 0.798,0.32 0.78,0.827 -0.019,0.517 -0.353,0.797 -0.838,0.779 z"
             style="fill:#ffffff"
             id="path352" />
        </g>
        <g
           transform="translate(144.8229,294.8589)"
           id="g358">
          <path
             d="m 0,0 c -0.095,-0.619 -0.558,-0.787 -1.219,-0.685 l -1.162,0.179 c -0.373,0.057 -0.723,-0.085 -0.79,-0.522 l -0.126,-0.821 2.899,-0.447 -0.235,-1.524 -7.099,1.094 0.394,2.558 c 0.177,1.152 0.945,1.743 1.968,1.585 l 0.768,-0.118 c 0.576,-0.089 0.97,-0.434 1.042,-1.1 0.248,0.617 0.828,0.844 1.319,0.768 l 1.162,-0.179 c 0.33,-0.051 0.571,0.022 0.771,0.187 L 0.139,0.906 Z m -5.511,-0.067 c -0.352,0.054 -0.599,-0.061 -0.66,-0.455 l -0.133,-0.864 1.951,-0.3 0.123,0.799 c 0.061,0.395 -0.108,0.639 -0.535,0.705 z"
             style="fill:#ffffff"
             id="path356" />
        </g>
        <g
           transform="translate(145.1401,296.3812)"
           id="g362">
          <path
             d="m 0,0 -6.807,2.302 0.494,1.462 5.55,-1.877 0.757,2.238 L 1.252,3.7 Z"
             style="fill:#ffffff"
             id="path360" />
        </g>
        <g
           transform="translate(147.783,302.7494)"
           id="g366">
          <path
             d="m 0,0 -1.157,-2.098 -6.293,3.47 1.157,2.097 c 0.719,1.305 1.945,1.54 2.994,0.962 L -0.71,3.003 C 0.349,2.42 0.719,1.304 0,0 m -4.016,3.064 c -0.5,0.276 -0.924,0.201 -1.21,-0.318 l -0.354,-0.643 4.044,-2.229 0.354,0.642 c 0.286,0.52 0.124,0.917 -0.377,1.193 z"
             style="fill:#ffffff"
             id="path364" />
        </g>
        <g
           transform="translate(149.9507,309.4846)"
           id="g370">
          <path
             d="M 0,0 C -0.536,-0.592 -1.333,-0.685 -1.989,-0.091 -2.644,0.503 -2.631,1.305 -2.095,1.897 -1.566,2.481 -0.769,2.574 -0.114,1.98 0.542,1.386 0.528,0.584 0,0"
             style="fill:#ffffff"
             id="path368" />
        </g>
      </g>
    </g>
  </g>
</svg>
