<?xml version="1.0" encoding="UTF-8"?>
<!-- Created with Inkscape (http://www.inkscape.org/) -->
<svg width="1600" height="1600" version="1.1" xmlns="http://www.w3.org/2000/svg" xmlns:xlink="http://www.w3.org/1999/xlink">
 <title>Psyche mission patch</title>
 <defs>
  <linearGradient id="linearGradient1" x1="171.0331" x2="229.4329" y1="318.0504" y2="259.6101" gradientUnits="userSpaceOnUse">
   <stop style="stop-color:#312146" offset="0"/>
   <stop style="stop-color:#5a2752" offset=".2"/>
   <stop style="stop-color:#a5405c" offset=".4"/>
   <stop style="stop-color:#ef5965" offset=".6"/>
   <stop style="stop-color:#f47d33" offset=".8"/>
   <stop style="stop-color:#f9a000" offset="1"/>
  </linearGradient>
  <linearGradient id="linearGradient2" x1="157.9435" x2="242.5874" y1="331.257" y2="246.4163" gradientUnits="userSpaceOnUse" xlink:href="#linearGradient1"/>
 </defs>
 <g transform="matrix(11.40379 0 0 -11.40379 -1483.61 4093.584)">
  <g>
   <path d="m171.707 345.007-27.649-27.65c-15.699-15.699-15.699-41.386 0-57.084l27.649-27.651c15.699-15.698 41.387-15.698 57.086 0l27.649 27.651c15.699 15.698 15.699 41.385 0 57.084l-27.649 27.65c-7.85 7.849-18.197 11.774-28.543 11.774s-20.694-3.925-28.543-11.774m9.955-99.77-24.989 24.991c-10.223 10.223-10.223 26.951 0 37.174l24.989 24.99c10.223 10.223 26.953 10.223 37.176 0l24.989-24.99c10.223-10.223 10.223-26.951 0-37.174l-24.989-24.991c-5.112-5.112-11.85-7.667-18.588-7.667s-13.477 2.555-18.588 7.667" style="fill:url(#linearGradient2)"/>
  </g>
  <g>
   <g transform="translate(199.4041,259.9521)">
    <path d="m0 0c5.458-.192 11.013 1.44 15.683 5.025 1.732 1.328 3.235 2.844 4.504 4.496-4.18-1.038-8.448-1.733-12.756-2.09z" style="fill:#312146"/>
   </g>
   <g transform="translate(229.1069,289.655)">
    <path d="m0 0-7.419-7.419c-.351-4.269-1.041-8.537-2.096-12.763 6.489 4.981 9.772 12.585 9.515 20.182" style="fill:#312146"/>
   </g>
   <g transform="translate(238.9329,288.8147)">
    <path d="m0 0c0 3.103-.735 6.033-2.034 8.632l-7.792-7.792c.257-7.596-3.026-15.201-9.515-20.181 5.34 0 10.175 2.164 13.676 5.664v.001c3.5 3.5 5.665 8.335 5.665 13.676" style="fill:#5a2752"/>
   </g>
   <g transform="translate(215.0873,264.9768)">
    <path d="m0 0c-4.671-3.585-10.225-5.216-15.683-5.025l-7.787-7.786c2.599-1.299 5.529-2.034 8.633-2.034 10.682 0 19.341 8.66 19.341 19.341-1.269-1.652-2.773-3.167-4.504-4.496" style="fill:#5a2752"/>
   </g>
   <g transform="translate(199.4041,259.9521)">
    <path d="m0 0 7.431 7.431c-5.998-.497-12.076-.324-18.121.557l-3.112-3.112c4.044-3.042 8.882-4.703 13.802-4.876" style="fill:#5a2752"/>
   </g>
   <g transform="translate(219.5915,288.8147)">
    <path d="m0 0c0 2.926-.654 5.699-1.817 8.186l-22.443-22.444c.14-.193.276-.389.422-.579 1.329-1.732 2.844-3.235 4.496-4.504 10.683 0 19.342 8.659 19.342 19.341" style="fill:#5a2752"/>
   </g>
   <g transform="translate(221.1183,300.3442)">
    <path d="m0 0c.868-5.961 1.069-12.035.57-18.108l7.419 7.419c-.164 4.83-1.758 9.654-4.877 13.801z" style="fill:#5a2752"/>
   </g>
   <g transform="translate(195.7535,273.9774)">
    <path d="m0 0c-.146.191-.282.386-.422.58l-3.267-3.267c2.486-1.164 5.259-1.817 8.185-1.817-1.652 1.269-3.167 2.773-4.496 4.504" style="fill:#a5405c"/>
   </g>
   <g transform="translate(185.6023,264.8281)">
    <path d="m0 0-3.083-3.083c.974-2.233 2.354-4.248 4.053-5.947l.003-.003c1.466-1.466 3.169-2.693 5.042-3.629l7.787 7.786c-4.92.173-9.758 1.834-13.802 4.876" style="fill:#a5405c"/>
   </g>
   <g transform="translate(229.1069,289.655)">
    <path d="m0 0 7.792 7.792c-2.022 4.046-5.418 7.282-9.579 9.099l-3.089-3.09c3.118-4.147 4.713-8.971 4.876-13.801" style="fill:#a5405c"/>
   </g>
   <g transform="translate(195.3314,274.5572)">
    <path d="m0 0 22.443 22.443c-1.92 4.103-5.236 7.419-9.339 9.339l-17.718-17.719c.036-4.896 1.546-9.816 4.614-14.063" style="fill:#a5405c"/>
   </g>
   <g transform="translate(176.2695,274.1732)">
    <path d="m0 0c.049-.065.093-.131.143-.196 1.328-1.731 2.844-3.235 4.496-4.504-.639 2.575-1.144 5.183-1.527 7.812z" style="fill:#a5405c"/>
   </g>
   <g transform="translate(185.6023,264.8281)">
    <path d="m0 0 3.112 3.112c-2.611.381-5.217.887-7.806 1.533 1.381-1.799 2.966-3.345 4.694-4.645" style="fill:#a5405c"/>
   </g>
   <g transform="translate(224.2304,303.4563)">
    <path d="m0 0c-.049.065-.093.131-.143.196-1.328 1.731-2.844 3.235-4.496 4.504.639-2.575 1.144-5.183 1.527-7.812z" style="fill:#a5405c"/>
   </g>
   <g transform="translate(214.8977,312.8013)">
    <path d="m0 0-3.112-3.112c2.611-.381 5.217-.887 7.806-1.533-1.381 1.799-2.966 3.345-4.694 4.645" style="fill:#a5405c"/>
   </g>
   <g transform="translate(176.4121,273.9774)">
    <path d="m0 0c-.049.064-.094.131-.143.196l-3.089-3.09c2.367-1.033 4.98-1.61 7.728-1.61-1.652 1.269-3.167 2.773-4.496 4.504" style="fill:#ef5965"/>
   </g>
   <g transform="translate(180.9085,269.4733)">
    <path d="m0 0c0-2.748.577-5.361 1.61-7.729l3.084 3.084c-1.728 1.3-3.314 2.846-4.694 4.645" style="fill:#ef5965"/>
   </g>
   <g transform="translate(224.0879,303.6521)">
    <path d="m0 0c.049-.064.094-.131.143-.196l3.089 3.09c-2.367 1.033-4.98 1.61-7.728 1.61 1.652-1.269 3.167-2.773 4.496-4.504" style="fill:#ef5965"/>
   </g>
   <g transform="translate(219.5915,308.1562)">
    <path d="m0 0c0 2.748-.577 5.361-1.61 7.729l-3.084-3.084c1.728-1.3 3.314-2.846 4.694-4.645" style="fill:#ef5965"/>
   </g>
   <g transform="translate(190.7169,288.6206)">
    <path d="m0 0-7.991-7.991c1.919-4.103 5.236-7.42 9.338-9.339l3.267 3.267c-3.068 4.246-4.578 9.167-4.614 14.063" style="fill:#ef5965"/>
   </g>
   <g transform="translate(190.7169,288.6206)">
    <path d="M 0,0 17.719,17.719 C 15.232,18.882 12.46,19.536 9.533,19.536 3.227,14.696 -0.054,7.38 0,0" style="fill:#ef5965"/>
   </g>
   <g transform="translate(176.2695,274.1732)">
    <path d="m0 0 3.112 3.112c-.868 5.961-1.069 12.036-.57 18.108l-7.418-7.419c.163-4.829 1.757-9.654 4.876-13.801" style="fill:#ef5965"/>
   </g>
   <g transform="translate(201.0959,317.6773)">
    <path d="m0 0-7.431-7.431c5.998.497 12.076.323 18.12-.557l3.113 3.112c-4.044 3.042-8.882 4.703-13.802 4.876" style="fill:#ef5965"/>
   </g>
   <g transform="translate(200.25,308.1562)">
    <path d="m0 0c-10.682 0-19.341-8.659-19.341-19.341 0-2.927.653-5.7 1.816-8.186l7.992 7.991c-.054 7.38 3.227 14.697 9.533 19.536" style="fill:#f47d33"/>
   </g>
   <g transform="translate(171.393,287.9745)">
    <path d="m0 0-7.792-7.792c.936-1.874 2.164-3.576 3.629-5.043l.004-.003c1.698-1.698 3.713-3.078 5.946-4.053l3.089 3.09c-3.118 4.147-4.713 8.971-4.876 13.801" style="fill:#f47d33"/>
   </g>
   <g transform="translate(214.8977,312.8013)">
    <path d="m0 0 3.083 3.083c-1.816 4.161-5.053 7.558-9.098 9.579l-7.787-7.786c4.92-.173 9.758-1.834 13.802-4.876" style="fill:#f47d33"/>
   </g>
   <g transform="translate(201.0959,317.6773)">
    <path d="m0 0c-5.458.192-11.013-1.44-15.683-5.025-1.732-1.328-3.235-2.844-4.504-4.496 4.18 1.038 8.448 1.733 12.756 2.09z" style="fill:#f47d33"/>
   </g>
   <g transform="translate(171.393,287.9745)">
    <path d="M 0,0 7.419,7.419 C 7.77,11.688 8.46,15.956 9.515,20.182 3.026,15.201 -0.257,7.597 0,0" style="fill:#f47d33"/>
   </g>
   <g transform="translate(180.9085,308.1562)">
    <path d="m0 0c-10.682 0-19.341-8.659-19.341-19.341 0-3.104.734-6.034 2.033-8.633l7.793 7.792c-.257 7.597 3.025 15.201 9.515 20.182" style="fill:#f9a000"/>
   </g>
   <g transform="translate(185.4126,312.6526)">
    <path d="m0 0c4.671 3.585 10.225 5.216 15.683 5.025l7.787 7.786c-2.599 1.299-5.529 2.034-8.633 2.034-10.682 0-19.341-8.659-19.341-19.341 1.269 1.652 2.773 3.167 4.504 4.496" style="fill:#f9a000"/>
   </g>
  </g>
  <g>
   <path d="m183.125 330.088-24.148-24.147c-9.443-9.444-9.443-24.809 0-34.252l24.148-24.147c4.556-4.556 10.638-7.066 17.125-7.066s12.569 2.51 17.125 7.066l24.147 24.147c4.557 4.557 7.066 10.638 7.066 17.125 0 6.488-2.509 12.57-7.066 17.127l-24.147 24.147c-4.721 4.721-10.923 7.082-17.125 7.082s-12.404-2.361-17.125-7.082m1.784-80.762-24.147 24.147c-8.46 8.459-8.46 22.224 0 30.683l24.147 24.148c4.23 4.229 9.785 6.344 15.341 6.344s11.111-2.115 15.341-6.344l24.147-24.148c4.08-4.08 6.327-9.528 6.327-15.342 0-5.813-2.247-11.26-6.327-15.341l-24.147-24.147c-4.079-4.08-9.528-6.327-15.341-6.327s-11.262 2.247-15.341 6.327" style="fill:url(#linearGradient1)"/>
   <g>
    <g transform="translate(154.9985,315.5976)">
     <path d="m0 0-.595-.595 1.785-1.785-1.365-1.366-5.081 5.081 1.961 1.96c.717.718 1.708.794 2.472.031l.854-.854c.763-.763.686-1.755-.031-2.472m-2.037 1.991c-.183.183-.343.16-.488.015l-.335-.335 1.327-1.328.336.336c.144.145.16.313-.016.488z" style="fill:#fff"/>
    </g>
    <g transform="translate(160.3157,317.0852)">
     <path d="m0 0c-1.038-1.038-2.204-1.121-3.112-.214l-.275.275 1.19 1.19.244-.244c.244-.244.572-.267.831-.008.26.26.237.527-.03.793-.313.313-.908.161-1.594.008-.877-.206-1.9-.404-2.647.343-.794.794-1 2.129.099 3.227.9.901 2.166.87 2.96.077l.213-.214-1.19-1.19-.236.237c-.221.221-.504.213-.687.03-.175-.175-.236-.481.008-.725.312-.312.9-.152 1.587 0 .884.199 1.922.397 2.7-.381.801-.801.992-2.151-.061-3.204" style="fill:#fff"/>
    </g>
    <g transform="translate(162.4209,323.737)">
     <path d="m0 0 2.144-2.144-1.366-1.365-2.143 2.143-4.127 1.747 1.403 1.404 2.25-1.137-1.197 2.19 1.35 1.35z" style="fill:#fff"/>
    </g>
    <g transform="translate(167.89,324.6595)">
     <path d="m0 0c-1.022-1.022-2.395-1.144-3.334-.206l-2.212 2.212c-.938.939-.816 2.312.206 3.334.969.969 2.182.992 3.059.114l.572-.572-1.213-1.213-.579.58c-.199.198-.466.206-.71-.038s-.236-.511-.038-.71l2.411-2.41c.198-.199.465-.206.709.038s.237.511.038.71l-.58.579 1.213 1.213.573-.572c.877-.877.854-2.09-.115-3.059" style="fill:#fff"/>
    </g>
    <g transform="translate(172.1697,329.1983)">
     <path d="m0 0-1.861 1.861-.809-.808 1.861-1.862-1.365-1.365-5.081 5.08 1.366 1.366 2.059-2.06.809.809-2.06 2.06 1.366 1.365 5.08-5.081z" style="fill:#fff"/>
    </g>
    <g transform="translate(174.2595,331.2881)">
     <path d="m0 0-5.081 5.081 2.907 2.906 1.106-1.106-1.541-1.541.892-.893 1 1 .961-.961-.999-1 .945-.946 1.541 1.541 1.176-1.175z" style="fill:#fff"/>
    </g>
    <g transform="translate(179.5995,339.101)">
     <path d="m0 0c-.593-.535-1.396-.547-1.988.11-.592.658-.498 1.455.095 1.989.585.527 1.388.539 1.98-.118.593-.657.498-1.454-.087-1.981" style="fill:#fff"/>
    </g>
    <g transform="translate(186.1877,340.9736)">
     <path d="m0 0c-1.222-.686-2.329-.368-2.952.742l-.465.828 1.279.718.47-.837c.259-.461.625-.54 1.02-.318.395.221.499.564.24 1.025l-2.587 4.609 1.345.755 2.54-4.524c.628-1.119.38-2.285-.89-2.998" style="fill:#fff"/>
    </g>
    <g transform="translate(191.1492,343.1898)">
     <path d="m0 0c-1.401-.47-2.531.117-2.939 1.334l-1.003 2.986c-.405 1.206.141 2.357 1.542 2.827 1.411.474 2.532-.117 2.936-1.324l1.003-2.985c.409-1.217-.128-2.364-1.539-2.838m-.963 5.411c-.155.46-.534.674-1.025.509-.48-.161-.653-.561-.499-1.021l1.057-3.149c.155-.46.534-.674 1.015-.513.49.165.664.564.509 1.025z" style="fill:#fff"/>
    </g>
    <g transform="translate(196.5468,344.4338)">
     <path d="m0 0c-1.348-.176-2.439.508-2.594 1.695l-.696 5.306 1.552.203.692-5.284c.063-.482.377-.713.879-.647.514.068.768.373.704.854l-.692 5.285 1.487.194.695-5.305c.156-1.188-.669-2.123-2.027-2.301" style="fill:#fff"/>
    </g>
    <g transform="translate(203.6508,344.6649)">
     <path d="m0 0c-.625.037-.836.482-.796 1.15l.07 1.174c.023.376-.152.711-.593.737l-.83.05-.174-2.929-1.54.092.428 7.172 2.584-.154c1.163-.07 1.824-.779 1.762-1.813l-.047-.776c-.034-.581-.341-1.006-.997-1.14.637-.189.917-.746.888-1.241l-.07-1.174c-.02-.334.074-.567.257-.75l-.027-.453zm-.581 5.481c.022.356-.116.591-.514.615l-.872.052-.118-1.971.808-.048c.398-.024.626.168.651.599z" style="fill:#fff"/>
    </g>
    <g transform="translate(208.6625,343.6396)">
     <path d="m0 0-.815 3.185-.301 1.292-1.014-3.926-1.368.353 1.797 6.954 1.242-.32.757-3.237.27-1.284 1.031 3.989 1.347-.348-1.798-6.955z" style="fill:#fff"/>
    </g>
    <g transform="translate(210.7357,342.9623)">
     <path d="m0 0 3.045 6.508 3.626-1.696-.549-1.173-2.228 1.043-.668-1.427 1.535-.718-.494-1.056-1.534.718-.764-1.632 2.228-1.042-.572-1.222z" style="fill:#fff"/>
    </g>
    <g transform="translate(219.0943,341.6557)">
     <path d="m0 0-1.715-2.434-1.261.888 1.715 2.434.906 4.509 1.323-.932-.743-2.947 2.48 1.723 1.262-.889z" style="fill:#fff"/>
    </g>
    <g transform="translate(226.8241,338.4807)">
     <path d="m0 0-4.15-4.15-1.091 1.091 4.15 4.15-1.098 1.098.93.931 3.281-3.28-.931-.931z" style="fill:#fff"/>
    </g>
    <g transform="translate(225.8774,330.8681)">
     <path d="m0 0c-1.045 1.045-1.022 2.319-.114 3.227l2.227 2.227c.901.901 2.174.923 3.219-.122 1.053-1.052 1.023-2.319.123-3.219l-2.228-2.227c-.908-.908-2.174-.939-3.227.114m4.417 3.273c.343.343.366.778 0 1.144-.358.359-.793.336-1.137-.008l-2.349-2.349c-.343-.344-.366-.778-.008-1.137.366-.366.801-.343 1.145 0z" style="fill:#fff"/>
    </g>
    <g transform="translate(232.303,324.7021)">
     <path d="m0 0 .794 1.221-1.054 1.052-1.22-.793-1.022 1.022 6.27 3.891 1.221-1.221-3.898-6.263zm2.952 4.386-2.243-1.464.748-.748z" style="fill:#fff"/>
    </g>
    <g transform="translate(239.0537,317.9512)">
     <path d="m0 0 3.601 3.601-1.404-.9-3.059-1.839-.816.816 1.868 3.029.908 1.396-3.6-3.601-.977.977 5.081 5.08 1.465-1.465-1.976-3.196-.71-1.075 1.084.701 3.188 1.984 1.457-1.457-5.08-5.081z" style="fill:#fff"/>
    </g>
    <g transform="translate(241.0453,315.9595)">
     <path d="m0 0 5.08 5.081 2.831-2.831-.916-.915-1.739 1.739-1.114-1.114 1.198-1.197-.824-.824-1.198 1.198-1.273-1.274 1.739-1.74-.954-.953z" style="fill:#fff"/>
    </g>
    <g transform="translate(250.7386,314.5659)">
     <path d="m0 0-4.15-4.15-1.09 1.091 4.15 4.15-1.099 1.098.93.931 3.281-3.28-.931-.931z" style="fill:#fff"/>
    </g>
    <g transform="translate(250.0648,306.7247)">
     <path d="m0 0 .882 1.159-.972 1.127-1.276-.7-.944 1.095 6.542 3.416 1.127-1.308-4.352-5.958zm3.269 4.156-2.345-1.295.691-.801z" style="fill:#fff"/>
    </g>
    <g transform="translate(251.3333,305.0828)">
     <path d="m0 0 6.159 3.698.795-1.322-5.022-3.016 1.216-2.025-1.138-.683z" style="fill:#fff"/>
    </g>
    <g transform="translate(255.9262,294.0288)">
     <path d="m0 0-.354 1.335 3.839 1.897-4.283-.218-.35 1.324 6.562 3.288.392-1.481-4.348-1.954 4.778.327.306-1.158-4.326-2.037 4.752.431.364-1.376z" style="fill:#fff"/>
    </g>
    <g transform="translate(256.1091,289.8499)">
     <path d="m0 0c-.054 1.477.831 2.393 2.114 2.44l3.148.113c1.271.046 2.219-.805 2.273-2.282.053-1.487-.832-2.393-2.104-2.44l-3.147-.113c-1.283-.045-2.231.794-2.284 2.282m5.462-.613c.485.017.798.32.779.837-.018.507-.352.787-.837.769l-3.32-.119c-.485-.018-.798-.32-.78-.827.019-.518.353-.797.838-.779z" style="fill:#fff"/>
    </g>
    <g transform="translate(255.6774,282.7707)">
     <path d="m0 0c.095.618.558.787 1.219.685l1.162-.179c.373-.058.723.085.79.522l.126.821-2.899.447.235 1.524 7.099-1.094-.394-2.558c-.177-1.152-.945-1.743-1.968-1.585l-.768.118c-.576.089-.97.434-1.042 1.099-.248-.616-.828-.843-1.319-.768l-1.162.18c-.33.05-.571-.022-.771-.187l-.447.069zm5.511.067c.352-.054.599.061.66.455l.133.863-1.951.301-.123-.799c-.061-.395.108-.639.535-.705z" style="fill:#fff"/>
    </g>
    <g transform="translate(255.3602,281.2482)">
     <path d="m0 0 6.807-2.302-.494-1.462-5.55 1.877-.757-2.238-1.258.425z" style="fill:#fff"/>
    </g>
    <g transform="translate(252.7173,274.8802)">
     <path d="m0 0 1.157 2.098 6.293-3.47-1.157-2.097c-.719-1.305-1.945-1.54-2.994-.962l-2.589 1.427c-1.059.584-1.429 1.7-.71 3.004m4.016-3.064c.5-.276.924-.202 1.21.318l.354.643-4.044 2.229-.354-.642c-.286-.52-.124-.918.377-1.194z" style="fill:#fff"/>
    </g>
    <g transform="translate(250.5495,268.1448)">
     <path d="m0 0c.536.592 1.333.685 1.989.091.655-.594.642-1.396.106-1.988-.529-.584-1.326-.677-1.981-.083-.656.594-.642 1.396-.114 1.98" style="fill:#fff"/>
    </g>
    <g transform="translate(245.5015,262.0322)">
     <path d="m0 0 .595.595-1.785 1.785 1.365 1.365 5.081-5.08-1.961-1.961c-.717-.717-1.708-.793-2.472-.03l-.854.854c-.763.763-.686 1.755.031 2.472m2.037-1.991c.183-.183.343-.16.488-.015l.335.335-1.327 1.328-.336-.336c-.144-.145-.16-.313.016-.488z" style="fill:#fff"/>
    </g>
    <g transform="translate(240.1843,260.5444)">
     <path d="m0 0c1.038 1.038 2.204 1.121 3.112.213l.275-.274-1.19-1.19-.244.244c-.244.244-.572.267-.831.008-.26-.26-.237-.526.03-.794.313-.312.908-.16 1.594-.007.877.206 1.9.404 2.647-.343.794-.794 1-2.129-.099-3.227-.9-.901-2.166-.87-2.96-.077l-.213.214 1.19 1.19.236-.237c.221-.221.504-.213.687-.03.175.176.236.481-.008.725-.312.312-.9.152-1.587 0-.884-.199-1.922-.397-2.7.381-.801.801-.992 2.151.061 3.204" style="fill:#fff"/>
    </g>
    <g transform="translate(238.0791,253.8928)">
     <path d="m0 0-2.144 2.143 1.366 1.366 2.143-2.144 4.127-1.747-1.403-1.403-2.25 1.136 1.197-2.189-1.35-1.35z" style="fill:#fff"/>
    </g>
    <g transform="translate(232.61,252.9702)">
     <path d="m0 0c1.022 1.022 2.395 1.144 3.334.206l2.212-2.212c.938-.939.816-2.312-.206-3.334-.969-.969-2.182-.992-3.059-.115l-.572.573 1.213 1.213.579-.58c.199-.199.466-.206.71.038s.236.511.038.71l-2.411 2.41c-.198.199-.465.206-.709-.038s-.237-.511-.038-.71l.58-.579-1.213-1.213-.573.572c-.877.877-.854 2.09.115 3.059" style="fill:#fff"/>
    </g>
    <g transform="translate(228.3303,248.4314)">
     <path d="m0 0 1.861-1.861.809.808-1.861 1.862 1.365 1.365 5.081-5.081-1.366-1.365-2.059 2.06-.809-.809 2.06-2.06-1.366-1.365-5.08 5.08z" style="fill:#fff"/>
    </g>
    <g transform="translate(226.2405,246.3417)">
     <path d="m0 0 5.081-5.081-2.907-2.906-1.106 1.106 1.541 1.541-.892.892-1-.999-.961.961.999 1-.945.945-1.541-1.541-1.176 1.175z" style="fill:#fff"/>
    </g>
    <g transform="translate(220.9005,238.5287)">
     <path d="m0 0c.593.534 1.396.546 1.988-.111s.498-1.454-.095-1.988c-.585-.528-1.388-.54-1.98.117s-.498 1.455.087 1.982" style="fill:#fff"/>
    </g>
    <g transform="translate(214.3123,236.656)">
     <path d="m0 0c1.222.686 2.329.368 2.952-.742l.465-.828-1.279-.718-.47.837c-.259.461-.625.54-1.02.318-.395-.221-.499-.564-.24-1.025l2.587-4.609-1.345-.755-2.54 4.524c-.628 1.119-.38 2.285.89 2.998" style="fill:#fff"/>
    </g>
    <g transform="translate(209.3511,234.4396)">
     <path d="m0 0c1.401.471 2.531-.117 2.939-1.334l1.003-2.985c.405-1.207-.142-2.358-1.542-2.828-1.411-.474-2.532.117-2.936 1.324l-1.003 2.985c-.409 1.217.128 2.364 1.539 2.838m.963-5.411c.155-.46.534-.674 1.025-.509.48.161.653.561.499 1.021l-1.057 3.149c-.155.46-.534.674-1.015.513-.49-.165-.664-.564-.509-1.025z" style="fill:#fff"/>
    </g>
    <g transform="translate(203.9535,233.1955)">
     <path d="m0 0c1.348.177 2.438-.508 2.594-1.695l.696-5.306-1.552-.203-.692 5.285c-.064.481-.376.712-.879.646-.514-.067-.768-.373-.705-.854l.693-5.284-1.487-.195-.695 5.306c-.156 1.187.668 2.122 2.027 2.3" style="fill:#fff"/>
    </g>
    <g transform="translate(196.8495,232.9645)">
     <path d="m0 0c.625-.037.836-.482.796-1.15l-.07-1.174c-.023-.376.152-.711.593-.738l.83-.049.175 2.929 1.54-.092-.429-7.172-2.584.154c-1.163.07-1.824.779-1.762 1.813l.047.775c.034.582.341 1.007.997 1.14-.637.19-.917.747-.888 1.242l.07 1.174c.02.334-.074.567-.257.75l.027.453zm.581-5.482c-.022-.355.116-.59.514-.614l.872-.052.118 1.971-.808.048c-.398.024-.626-.168-.651-.599z" style="fill:#fff"/>
    </g>
    <g transform="translate(191.8378,233.99)">
     <path d="m0 0 .815-3.185.301-1.292 1.014 3.926 1.368-.353-1.797-6.955-1.243.321-.756 3.237-.27 1.284-1.031-3.989-1.347.348 1.797 6.955z" style="fill:#fff"/>
    </g>
    <g transform="translate(189.7646,234.6669)">
     <path d="m0 0-3.045-6.508-3.626 1.696.549 1.173 2.228-1.043.668 1.427-1.534.718.493 1.056 1.534-.718.764 1.632-2.228 1.042.572 1.222z" style="fill:#fff"/>
    </g>
    <g transform="translate(181.4066,235.9739)">
     <path d="m0 0 1.715 2.434 1.261-.888-1.715-2.434-.906-4.509-1.323.932.743 2.947-2.481-1.723-1.26.889z" style="fill:#fff"/>
    </g>
    <g transform="translate(173.6762,239.1489)">
     <path d="m0 0 4.15 4.15 1.091-1.091-4.15-4.15 1.099-1.099-.931-.93-3.28 3.28.93.931z" style="fill:#fff"/>
    </g>
    <g transform="translate(174.6229,246.7617)">
     <path d="m0 0c1.045-1.045 1.022-2.319.115-3.227l-2.228-2.228c-.9-.9-2.174-.923-3.219.122-1.053 1.053-1.022 2.319-.122 3.22l2.227 2.227c.908.908 2.174.939 3.227-.114m-4.417-3.273c-.343-.343-.366-.778 0-1.144.359-.359.794-.336 1.137.008l2.349 2.349c.344.343.367.778.008 1.137-.366.366-.801.343-1.144 0z" style="fill:#fff"/>
    </g>
    <g transform="translate(168.1976,252.9276)">
     <path d="m0 0-.793-1.221 1.052-1.052 1.221.793 1.022-1.022-6.271-3.891-1.22 1.221 3.898 6.263zm-2.952-4.387 2.242 1.465-.747.748z" style="fill:#fff"/>
    </g>
    <g transform="translate(161.4465,259.6781)">
     <path d="m0 0-3.601-3.601 1.404.901 3.059 1.838.816-.816-1.868-3.029-.908-1.396 3.6 3.601.977-.976-5.081-5.081-1.465 1.465 1.976 3.196.71 1.076-1.084-.702-3.188-1.984-1.457 1.457 5.08 5.081z" style="fill:#fff"/>
    </g>
    <g transform="translate(159.4549,261.67)">
     <path d="m0 0-5.08-5.081-2.831 2.83.916.916 1.739-1.74 1.114 1.115-1.198 1.197.824.824 1.198-1.198 1.274 1.274-1.74 1.739.954.954z" style="fill:#fff"/>
    </g>
    <g transform="translate(149.7617,263.0635)">
     <path d="m0 0 4.15 4.15 1.091-1.091-4.151-4.149 1.099-1.099-.93-.931-3.281 3.28.931.931z" style="fill:#fff"/>
    </g>
    <g transform="translate(150.4355,270.9048)">
     <path d="m0 0-.882-1.159.972-1.128 1.276.701.944-1.095-6.542-3.416-1.127 1.308 4.352 5.958zm-3.269-4.156 2.345 1.295-.691.8z" style="fill:#fff"/>
    </g>
    <g transform="translate(149.167,272.5465)">
     <path d="m0 0-6.159-3.698-.794 1.322 5.021 3.016-1.215 2.025 1.137.683z" style="fill:#fff"/>
    </g>
    <g transform="translate(144.5741,283.6006)">
     <path d="m0 0 .354-1.335-3.839-1.897 4.283.218.35-1.324-6.562-3.288-.392 1.481 4.348 1.954-4.778-.327-.306 1.158 4.326 2.037-4.752-.431-.364 1.376z" style="fill:#fff"/>
    </g>
    <g transform="translate(144.3911,287.78)">
     <path d="m0 0c.053-1.477-.831-2.393-2.114-2.44l-3.148-.113c-1.272-.046-2.22.805-2.273 2.282-.053 1.487.831 2.393 2.104 2.439l3.147.114c1.283.045 2.23-.795 2.284-2.282m-5.462.613c-.485-.018-.798-.32-.779-.838.018-.507.352-.786.837-.768l3.32.119c.485.018.798.32.78.827-.019.517-.353.797-.838.779z" style="fill:#fff"/>
    </g>
    <g transform="translate(144.8229,294.8589)">
     <path d="m0 0c-.095-.619-.558-.787-1.219-.685l-1.162.179c-.373.057-.723-.085-.79-.522l-.126-.821 2.899-.447-.235-1.524-7.099 1.094.394 2.558c.177 1.152.945 1.743 1.968 1.585l.768-.118c.576-.089.97-.434 1.042-1.1.248.617.828.844 1.319.768l1.162-.179c.33-.051.571.022.771.187l.447-.069zm-5.511-.067c-.352.054-.599-.061-.66-.455l-.133-.864 1.951-.3.123.799c.061.395-.108.639-.535.705z" style="fill:#fff"/>
    </g>
    <g transform="translate(145.1401,296.3812)">
     <path d="m0 0-6.807 2.302.494 1.462 5.55-1.877.757 2.238 1.258-.425z" style="fill:#fff"/>
    </g>
    <g transform="translate(147.783,302.7494)">
     <path d="m0 0-1.157-2.098-6.293 3.47 1.157 2.097c.719 1.305 1.945 1.54 2.994.962l2.589-1.428c1.059-.583 1.429-1.699.71-3.003m-4.016 3.064c-.5.276-.924.201-1.21-.318l-.354-.643 4.044-2.229.354.642c.286.52.124.917-.377 1.193z" style="fill:#fff"/>
    </g>
    <g transform="translate(149.9507,309.4846)">
     <path d="m0 0c-.536-.592-1.333-.685-1.989-.091-.655.594-.642 1.396-.106 1.988.529.584 1.326.677 1.981.083.656-.594.642-1.396.114-1.98" style="fill:#fff"/>
    </g>
   </g>
  </g>
 </g>
</svg>